<svg xmlns="http://www.w3.org/2000/svg" width="600" height="600" viewBox="0 0 600 600">
<g>
<path d="M 266.50 432.81 C264.64,431.76 262.25,429.84 260.61,428.24 C262.09,429.28 262.34,429.12 261.21,427.75 C259.74,425.96 258.69,419.55 259.48,417.08 C259.84,415.92 261.46,414.30 263.07,413.46 C264.68,412.63 266.00,411.21 266.00,410.30 C266.00,408.01 268.94,405.00 271.18,405.00 C272.24,405.00 273.45,403.95 273.98,402.56 C274.49,401.21 277.86,397.10 281.47,393.42 C285.08,389.74 288.27,385.76 288.57,384.59 C288.86,383.41 290.43,381.56 292.05,380.47 C293.67,379.39 295.00,378.16 295.00,377.75 C295.00,377.34 295.69,377.00 296.54,377.00 C297.39,377.00 299.86,376.09 302.04,374.98 C305.68,373.12 306.52,372.01 306.07,369.61 C305.84,368.36 322.23,352.04 323.75,352.02 C324.44,352.01 325.01,351.21 325.02,350.25 C325.03,349.06 325.28,348.89 325.79,349.70 C326.29,350.48 327.41,349.24 328.99,346.20 C331.50,341.34 336.54,336.11 338.78,336.04 C339.49,336.02 340.30,335.37 340.60,334.60 C340.90,333.83 342.03,332.96 343.13,332.68 C344.23,332.39 345.01,331.56 344.87,330.83 C344.34,328.11 346.15,325.18 348.76,324.52 C351.20,323.91 356.46,319.11 357.23,316.81 C357.40,316.30 358.43,315.77 359.52,315.62 C360.76,315.45 361.86,314.16 362.46,312.17 C362.98,310.43 363.77,309.00 364.21,309.00 C364.64,309.00 365.81,308.19 366.79,307.21 C367.78,306.22 370.02,304.82 371.78,304.09 C373.54,303.36 374.75,302.40 374.47,301.95 C373.87,300.98 392.52,281.85 395.75,280.13 C396.99,279.47 398.00,278.22 398.00,277.36 C398.00,276.41 398.56,276.00 399.43,276.33 C401.26,277.04 402.35,275.53 403.87,270.25 C404.53,267.91 405.49,266.00 405.99,266.00 C406.50,266.00 408.02,264.89 409.37,263.54 C412.71,260.20 423.65,258.88 427.43,261.37 C430.11,263.12 431.21,263.38 430.47,262.22 C430.86,262.61 431.18,262.98 431.44,263.32 C433.43,266.04 433.50,267.37 433.50,300.00 L 433.50 300.65 C433.10,292.92 432.48,287.14 431.94,288.50 C431.23,290.26 431.13,290.19 431.07,287.83 C430.92,282.11 430.08,282.17 424.21,288.31 C418.05,294.76 418.22,294.59 400.63,311.85 C394.11,318.26 387.70,324.88 386.40,326.57 C385.10,328.26 383.01,330.19 381.76,330.86 C379.53,332.06 375.47,337.79 375.82,339.25 C375.92,339.66 375.44,340.00 374.75,340.01 C372.77,340.02 378.67,342.82 381.73,343.32 C383.08,343.54 391.12,343.68 400.45,343.65 C395.76,343.70 390.15,343.74 383.43,343.79 L 343.00 344.09 L 343.00 402.86 C343.00,378.20 342.63,376.42 337.71,377.41 C334.40,378.07 332.77,379.54 311.71,400.89 C304.44,408.25 294.98,417.69 290.69,421.86 C283.61,428.73 283.04,429.56 284.63,430.72 C285.59,431.42 285.96,432.09 285.44,432.19 C284.92,432.30 289.00,432.66 294.50,433.00 C300.00,433.34 310.48,433.70 317.78,433.81 C319.05,433.82 320.24,433.84 321.34,433.84 C316.14,433.97 309.20,433.98 299.78,433.97 C278.47,433.95 267.86,433.58 266.50,432.81 ZM 432.85 333.20 C432.58,334.83 432.18,335.59 431.62,336.37 C432.15,335.45 432.55,334.42 432.85,333.20 ZM 340.30 428.06 C338.71,429.94 337.51,431.23 335.40,432.11 C337.30,431.22 338.73,429.93 340.30,428.06 Z" fill="rgba(1,169,121,1)"/>
<path d="M 256.10 208.33 C256.16,223.51 256.55,234.40 257.00,233.00 C257.44,231.62 257.85,225.10 257.92,218.50 C257.99,211.90 258.69,202.90 259.48,198.50 C260.28,194.10 260.95,188.36 260.97,185.75 C260.99,182.21 261.38,181.00 262.50,181.00 C263.33,181.00 264.00,181.40 264.00,181.89 C264.00,183.11 266.70,184.05 268.36,183.42 C270.46,182.61 272.35,178.35 272.43,174.23 L 272.50 170.50 L 279.50 169.81 C307.84,167.00 326.60,166.48 332.78,168.33 C335.12,169.03 336.95,169.36 337.41,169.20 C337.94,169.54 338.42,169.92 338.86,170.35 C339.11,170.59 339.34,170.85 339.56,171.12 C339.33,171.18 339.52,172.21 340.21,174.18 C340.56,175.19 340.88,175.84 340.86,176.49 C340.79,178.13 338.44,179.68 328.50,186.88 C308.42,201.43 298.85,214.06 279.52,251.50 C267.55,274.68 263.53,281.70 257.66,289.67 C240.15,313.46 211.55,329.55 181.00,332.80 C171.20,333.85 168.32,333.13 167.39,329.41 C166.59,326.21 167.68,301.01 169.16,288.50 C169.75,283.55 170.19,278.15 170.14,276.50 C170.09,274.85 170.83,272.60 171.77,271.50 C174.14,268.76 181.06,263.49 183.50,262.59 C187.62,261.06 208.75,258.01 215.25,258.00 C219.08,258.00 222.00,257.57 222.00,257.00 C222.00,256.47 216.63,256.13 207.07,256.03 C210.45,256.01 214.12,256.00 218.06,256.00 L 256.00 256.00 L 256.00 218.58 C256.00,207.10 256.02,199.08 256.10,193.33 C256.07,197.17 256.08,202.05 256.10,208.33 ZM 275.50 334.15 C269.59,336.95 264.00,337.89 264.00,336.07 C264.00,334.28 267.10,332.07 270.50,331.43 C274.29,330.72 277.42,327.98 275.26,327.26 C273.40,326.63 275.64,323.00 277.87,323.00 C279.75,323.00 282.00,319.24 282.00,316.10 C282.00,314.92 283.12,313.97 285.25,313.36 C287.27,312.78 289.00,311.38 289.83,309.66 C290.56,308.14 292.27,306.47 293.62,305.95 C294.98,305.44 296.85,303.67 297.79,302.02 C300.02,298.11 302.48,297.93 301.53,301.75 C301.15,303.26 300.20,305.21 299.42,306.08 C298.64,306.95 298.00,308.89 298.00,310.40 C298.00,316.48 285.97,329.17 275.50,334.15 ZM 343.27 210.43 C343.16,194.64 343.02,185.84 342.68,180.73 C343.39,187.24 343.17,196.70 343.27,210.43 ZM 268.22 167.14 C270.21,166.48 273.22,166.18 280.93,166.11 C273.47,166.25 270.22,166.54 268.22,167.14 ZM 258.26 175.96 C259.82,172.60 261.39,170.74 264.36,169.00 C261.37,170.77 259.81,172.62 258.26,175.96 Z" fill="rgba(2,202,165,1)"/>
<path d="M 259.77 427.62 C258.81,426.89 258.32,426.01 258.68,425.65 C259.04,425.29 258.88,425.00 258.33,425.00 C257.78,425.00 257.20,424.44 257.03,423.75 C256.86,423.06 256.55,407.12 256.33,388.33 L 256.25 381.18 C256.36,383.55 256.49,385.23 256.63,385.75 C257.27,388.15 259.00,388.86 259.00,386.73 C259.00,386.03 260.91,383.59 263.25,381.30 C265.59,379.01 269.00,375.65 270.82,373.82 C272.65,371.99 274.86,369.83 275.73,369.00 C276.60,368.17 278.02,366.68 278.90,365.69 C283.65,360.31 292.21,352.00 293.02,352.00 C293.53,352.00 294.64,350.66 295.49,349.02 C296.34,347.38 298.37,345.34 300.01,344.49 C301.67,343.63 303.64,341.41 304.45,339.48 C305.24,337.56 306.39,336.00 307.00,336.00 C307.60,336.00 322.43,321.60 339.95,304.00 C357.47,286.40 372.31,272.00 372.93,272.00 C373.54,272.00 374.55,270.88 375.18,269.51 C376.54,266.51 384.52,260.12 387.71,259.47 C388.97,259.21 391.24,258.71 392.75,258.35 L 395.50 257.71 L 392.09 256.95 C390.21,256.53 378.35,256.26 365.74,256.34 L 342.81 256.50 L 380.07 256.23 C419.97,255.93 425.39,256.45 429.48,260.98 C431.69,263.42 430.82,263.59 427.43,261.37 C423.65,258.88 412.71,260.20 409.37,263.54 C408.02,264.89 406.50,266.00 405.99,266.00 C405.49,266.00 404.53,267.91 403.87,270.25 C402.35,275.53 401.26,277.04 399.43,276.33 C398.56,276.00 398.00,276.41 398.00,277.36 C398.00,278.22 396.99,279.47 395.75,280.13 C392.52,281.85 373.87,300.98 374.47,301.95 C374.75,302.40 373.54,303.36 371.78,304.09 C370.02,304.82 367.78,306.22 366.79,307.21 C365.81,308.19 364.64,309.00 364.21,309.00 C363.77,309.00 362.98,310.43 362.46,312.17 C361.86,314.16 360.76,315.45 359.52,315.62 C358.43,315.77 357.40,316.30 357.23,316.81 C356.46,319.11 351.20,323.91 348.76,324.52 C346.15,325.18 344.34,328.11 344.87,330.83 C345.01,331.56 344.23,332.39 343.13,332.68 C342.03,332.96 340.90,333.83 340.60,334.60 C340.30,335.37 339.49,336.02 338.78,336.04 C336.54,336.11 331.50,341.34 328.99,346.20 C327.41,349.24 326.29,350.48 325.79,349.70 C325.28,348.89 325.03,349.06 325.02,350.25 C325.01,351.21 324.44,352.01 323.75,352.02 C322.23,352.04 305.84,368.36 306.07,369.61 C306.52,372.01 305.68,373.12 302.04,374.98 C299.86,376.09 297.39,377.00 296.54,377.00 C295.69,377.00 295.00,377.34 295.00,377.75 C295.00,378.16 293.67,379.39 292.05,380.47 C290.43,381.56 288.86,383.41 288.57,384.59 C288.27,385.76 285.08,389.74 281.47,393.42 C277.86,397.10 274.49,401.21 273.98,402.56 C273.45,403.95 272.24,405.00 271.18,405.00 C268.94,405.00 266.00,408.01 266.00,410.30 C266.00,411.21 264.68,412.63 263.07,413.46 C261.46,414.30 259.84,415.92 259.48,417.08 C258.69,419.55 259.74,425.96 261.21,427.75 C262.53,429.35 261.97,429.30 259.77,427.62 ZM 256.00 359.09 L 255.95 354.15 L 256.00 354.14 L 256.00 359.09 Z" fill="rgba(2,158,110,1)"/>
<path d="M 280.03 258.37 C280.05,258.99 280.52,258.71 281.08,257.75 C281.64,256.79 283.00,256.00 284.10,256.00 C285.41,256.00 286.57,254.88 287.46,252.75 C288.21,250.96 289.98,248.42 291.38,247.10 C292.79,245.78 294.45,243.18 295.06,241.31 C295.97,238.55 296.55,238.04 298.20,238.56 C299.75,239.06 301.51,237.96 305.69,233.85 C308.70,230.91 312.03,226.81 313.10,224.75 C314.24,222.55 315.78,221.00 316.82,221.00 C319.00,221.00 326.58,213.22 327.98,209.55 C328.56,208.03 329.46,207.17 330.08,207.55 C330.68,207.92 332.48,206.96 334.08,205.42 C336.29,203.31 337.03,201.64 337.14,198.56 L 337.28 194.50 L 338.00 198.50 C338.39,200.70 338.78,201.85 338.86,201.06 C338.96,199.99 339.36,200.11 340.41,201.55 C341.74,203.36 341.85,203.27 342.36,199.99 C342.66,198.03 342.91,195.76 343.09,193.46 C343.17,197.99 343.22,203.59 343.27,210.54 L 343.51 244.11 L 336.99 248.87 C324.07,258.30 317.13,268.93 309.49,291.00 C303.46,308.43 300.22,315.13 294.27,322.49 C288.41,329.74 276.84,337.72 267.35,341.07 C260.58,343.45 260.02,343.49 220.00,343.68 C212.02,343.72 204.40,343.71 197.86,343.66 C199.62,343.51 200.68,343.29 200.50,343.00 C200.16,342.45 200.41,342.00 201.05,342.00 C201.69,342.00 201.95,341.30 201.62,340.44 C201.23,339.44 202.31,337.70 204.64,335.56 C206.64,333.74 208.00,331.81 207.68,331.29 C207.32,330.71 204.21,331.08 199.79,332.23 C194.78,333.54 188.53,334.19 179.76,334.32 C174.25,334.40 169.53,334.49 167.76,334.55 C167.35,333.85 167.05,333.17 166.87,332.55 C166.39,330.88 166.00,316.21 166.00,299.94 C166.00,272.49 166.14,270.08 167.99,266.27 C170.02,262.05 174.61,258.00 177.35,258.00 C178.19,258.00 179.16,257.55 179.50,257.00 C179.88,256.38 188.18,256.00 201.06,256.00 C214.35,256.00 222.00,256.37 222.00,257.00 C222.00,257.57 219.08,258.00 215.25,258.00 C208.75,258.01 187.62,261.06 183.50,262.59 C181.06,263.49 174.14,268.76 171.77,271.50 C170.83,272.60 170.09,274.85 170.14,276.50 C170.19,278.15 169.75,283.55 169.16,288.50 C167.68,301.01 166.59,326.21 167.39,329.41 C168.32,333.13 171.20,333.85 181.00,332.80 C211.55,329.55 240.15,313.46 257.66,289.67 C263.53,281.70 267.55,274.68 279.52,251.50 C298.85,214.06 308.42,201.43 328.50,186.88 C338.44,179.68 340.79,178.13 340.86,176.49 C340.88,175.84 340.56,175.19 340.21,174.18 C338.82,170.17 339.47,170.08 341.49,173.98 C341.98,174.92 342.32,176.37 342.57,179.32 C342.24,179.27 342.00,179.47 342.00,179.87 C342.00,180.41 340.60,181.55 338.90,182.40 C328.24,187.72 306.40,207.44 302.25,215.50 C301.41,217.15 299.04,220.98 297.00,224.00 C291.47,232.19 279.95,255.52 280.03,258.37 ZM 256.10 208.33 C256.01,183.87 256.19,180.73 257.87,176.83 C259.94,172.03 261.85,170.09 266.90,167.65 C269.83,166.23 274.46,166.00 299.90,166.01 C327.82,166.01 336.06,166.67 337.50,168.99 C337.81,169.50 335.69,169.20 332.78,168.33 C326.60,166.48 307.84,167.00 279.50,169.81 L 272.50 170.50 L 272.43 174.23 C272.35,178.35 270.46,182.61 268.36,183.42 C266.70,184.05 264.00,183.11 264.00,181.89 C264.00,181.40 263.33,181.00 262.50,181.00 C261.38,181.00 260.99,182.21 260.97,185.75 C260.95,188.36 260.28,194.10 259.48,198.50 C258.69,202.90 257.99,211.90 257.92,218.50 C257.85,225.10 257.44,231.62 257.00,233.00 C256.55,234.40 256.16,223.51 256.10,208.33 ZM 275.50 334.15 C285.97,329.17 298.00,316.48 298.00,310.40 C298.00,308.89 298.64,306.95 299.42,306.08 C300.20,305.21 301.15,303.26 301.53,301.75 C302.48,297.93 300.02,298.11 297.79,302.02 C296.85,303.67 294.98,305.44 293.62,305.95 C292.27,306.47 290.56,308.14 289.83,309.66 C289.00,311.38 287.27,312.78 285.25,313.36 C283.12,313.97 282.00,314.92 282.00,316.10 C282.00,319.24 279.75,323.00 277.87,323.00 C275.64,323.00 273.40,326.63 275.26,327.26 C277.42,327.98 274.29,330.72 270.50,331.43 C267.10,332.07 264.00,334.28 264.00,336.07 C264.00,337.89 269.59,336.95 275.50,334.15 ZM 424.50 338.59 C420.88,339.62 419.37,340.08 419.21,339.79 C419.08,339.57 419.75,338.90 420.86,337.70 C422.15,336.29 423.85,335.39 424.62,335.68 C425.39,335.98 426.77,335.61 427.67,334.86 C429.18,333.62 429.20,333.70 427.91,335.76 C427.14,337.00 425.60,338.28 424.50,338.59 ZM 338.47 425.05 C336.97,427.95 336.00,428.79 336.00,427.18 C336.00,425.40 339.92,418.58 339.96,420.30 C339.98,421.29 339.31,423.43 338.47,425.05 ZM 176.97 343.09 C175.20,342.53 172.92,340.78 170.95,338.72 C173.28,340.73 175.96,342.75 176.93,343.05 C177.05,343.08 177.18,343.12 177.33,343.15 C177.16,343.13 177.04,343.11 176.97,343.09 Z" fill="rgba(5,198,150,1)"/>
<path d="M 256.63 385.75 C256.30,384.51 256.02,376.89 256.01,368.82 L 256.00 354.14 L 261.75 352.96 C276.64,349.89 289.30,342.75 299.82,331.49 C307.78,322.96 312.00,315.08 318.03,297.50 C324.34,279.09 328.19,271.84 335.99,263.66 L 342.81 256.50 L 365.74 256.34 C378.35,256.26 390.21,256.53 392.09,256.95 L 395.50 257.71 L 392.75 258.35 C391.24,258.71 388.97,259.21 387.71,259.47 C384.52,260.12 376.54,266.51 375.18,269.51 C374.55,270.88 373.54,272.00 372.93,272.00 C372.31,272.00 357.47,286.40 339.95,304.00 C322.43,321.60 307.60,336.00 307.00,336.00 C306.39,336.00 305.24,337.56 304.45,339.48 C303.64,341.41 301.67,343.63 300.01,344.49 C298.37,345.34 296.34,347.38 295.49,349.02 C294.64,350.66 293.53,352.00 293.02,352.00 C292.21,352.00 283.65,360.31 278.90,365.69 C278.02,366.68 276.60,368.17 275.73,369.00 C274.86,369.83 272.65,371.99 270.82,373.82 C269.00,375.65 265.59,379.01 263.25,381.30 C260.91,383.59 259.00,386.03 259.00,386.73 C259.00,388.86 257.27,388.15 256.63,385.75 Z" fill="rgba(3,146,103,1)"/>
<path d="M 294.50 433.00 C289.00,432.66 284.92,432.30 285.44,432.19 C285.96,432.09 285.59,431.42 284.63,430.72 C283.04,429.56 283.61,428.73 290.69,421.86 C294.98,417.69 304.44,408.25 311.71,400.89 C332.77,379.54 334.40,378.07 337.71,377.41 C342.63,376.42 343.00,378.20 343.00,402.86 L 343.00 424.85 L 340.30 428.06 C335.97,433.20 332.73,434.02 317.78,433.81 C310.48,433.70 300.00,433.34 294.50,433.00 ZM 338.47 425.05 C339.31,423.43 339.98,421.29 339.96,420.30 C339.92,418.58 336.00,425.40 336.00,427.18 C336.00,428.79 336.97,427.95 338.47,425.05 ZM 176.93 343.05 C175.06,342.48 166.93,335.55 167.01,334.60 C167.01,334.54 172.75,334.42 179.76,334.32 C188.53,334.19 194.78,333.54 199.79,332.23 C204.21,331.08 207.32,330.71 207.68,331.29 C208.00,331.81 206.64,333.74 204.64,335.56 C202.31,337.70 201.23,339.44 201.62,340.44 C201.95,341.30 201.69,342.00 201.05,342.00 C200.41,342.00 200.16,342.45 200.50,343.00 C201.24,344.20 180.85,344.24 176.93,343.05 ZM 381.73 343.32 C378.67,342.82 372.77,340.02 374.75,340.01 C375.44,340.00 375.92,339.66 375.82,339.25 C375.47,337.79 379.53,332.06 381.76,330.86 C383.01,330.19 385.10,328.26 386.40,326.57 C387.70,324.88 394.11,318.26 400.63,311.85 C418.22,294.59 418.05,294.76 424.21,288.31 C430.08,282.17 430.92,282.11 431.07,287.83 C431.13,290.19 431.23,290.26 431.94,288.50 C433.01,285.81 434.36,310.95 433.83,323.93 C433.40,334.71 432.41,337.11 426.62,341.44 C424.07,343.34 422.38,343.51 404.18,343.64 C393.36,343.71 383.25,343.57 381.73,343.32 ZM 424.50 338.59 C425.60,338.28 427.14,337.00 427.91,335.76 C429.20,333.70 429.18,333.62 427.67,334.86 C426.77,335.61 425.39,335.98 424.62,335.68 C423.85,335.39 422.15,336.29 420.86,337.70 C418.30,340.46 418.09,340.41 424.50,338.59 ZM 280.03 258.37 C279.95,255.52 291.47,232.19 297.00,224.00 C299.04,220.98 301.41,217.15 302.25,215.50 C306.40,207.44 328.24,187.72 338.90,182.40 C340.60,181.55 342.00,180.41 342.00,179.87 C342.00,179.33 342.43,179.15 342.97,179.48 C343.89,180.05 343.53,192.38 342.36,199.99 C341.85,203.27 341.74,203.36 340.41,201.55 C339.36,200.11 338.96,199.99 338.86,201.06 C338.78,201.85 338.39,200.70 338.00,198.50 L 337.28 194.50 L 337.14 198.56 C337.03,201.64 336.29,203.31 334.08,205.42 C332.48,206.96 330.68,207.92 330.08,207.55 C329.46,207.17 328.56,208.03 327.98,209.55 C326.58,213.22 319.00,221.00 316.82,221.00 C315.78,221.00 314.24,222.55 313.10,224.75 C312.03,226.81 308.70,230.91 305.69,233.85 C301.51,237.96 299.75,239.06 298.20,238.56 C296.55,238.04 295.97,238.55 295.06,241.31 C294.45,243.18 292.79,245.78 291.38,247.10 C289.98,248.42 288.21,250.96 287.46,252.75 C286.57,254.88 285.41,256.00 284.10,256.00 C283.00,256.00 281.64,256.79 281.08,257.75 C280.52,258.71 280.05,258.99 280.03,258.37 Z" fill="rgba(2,185,136,1)"/>
</g>
</svg>